<?xml version="1.0" encoding="UTF-8" standalone="no"?>
<!-- Created with Inkscape (http://www.inkscape.org/) -->
<svg
   xmlns:dc="http://purl.org/dc/elements/1.1/"
   xmlns:cc="http://creativecommons.org/ns#"
   xmlns:rdf="http://www.w3.org/1999/02/22-rdf-syntax-ns#"
   xmlns:svg="http://www.w3.org/2000/svg"
   xmlns="http://www.w3.org/2000/svg"
   xmlns:sodipodi="http://sodipodi.sourceforge.net/DTD/sodipodi-0.dtd"
   xmlns:inkscape="http://www.inkscape.org/namespaces/inkscape"
   width="180"
   height="179"
   id="svg2427"
   sodipodi:version="0.32"
   inkscape:version="0.46"
   version="1.0"
   sodipodi:docname="DGAC.svg"
   inkscape:output_extension="org.inkscape.output.svg.inkscape">
  <defs
     id="defs2429">
    <inkscape:perspective
       sodipodi:type="inkscape:persp3d"
       inkscape:vp_x="0 : 526.18109 : 1"
       inkscape:vp_y="0 : 1000 : 0"
       inkscape:vp_z="744.09448 : 526.18109 : 1"
       inkscape:persp3d-origin="372.04724 : 350.78739 : 1"
       id="perspective2435" />
  </defs>
  <sodipodi:namedview
     id="base"
     pagecolor="#ffffff"
     bordercolor="#666666"
     borderopacity="1.0"
     inkscape:pageopacity="0.0"
     inkscape:pageshadow="2"
     inkscape:zoom="1.979899"
     inkscape:cx="142.23429"
     inkscape:cy="84.453927"
     inkscape:document-units="px"
     inkscape:current-layer="layer1"
     showgrid="false"
     inkscape:window-width="1280"
     inkscape:window-height="750"
     inkscape:window-x="-8"
     inkscape:window-y="-8" />
  <metadata
     id="metadata2432">
    <rdf:RDF>
      <cc:Work
         rdf:about="">
        <dc:format>image/svg+xml</dc:format>
        <dc:type
           rdf:resource="http://purl.org/dc/dcmitype/StillImage" />
      </cc:Work>
    </rdf:RDF>
  </metadata>
  <g
     inkscape:label="Calque 1"
     inkscape:groupmode="layer"
     id="layer1">
    <path
       style="fill:#10218b;fill-opacity:1"
       d="M 0.58665768,89.418418 L 0.58665768,0.91841885 L 72.145422,0.93024885 L 143.70418,0.94206885 L 140.81707,2.0976389 C 127.58642,7.3932189 118.2004,13.022678 109.11872,21.109398 L 106.77304,23.198098 L 105.02893,22.095558 C 102.46846,20.476968 99.653092,19.221458 97.226912,18.616248 C 92.203292,17.363098 88.388782,18.435628 84.938722,22.071338 C 83.306902,23.790958 81.305632,27.137168 82.082992,26.846228 C 86.956112,25.022348 89.751162,25.867208 96.861112,31.313198 L 98.961222,32.921798 L 98.173572,34.170328 C 96.782952,36.374628 94.676292,40.940908 93.903792,43.425238 C 93.214462,45.642088 93.151602,46.221498 93.132632,50.532048 C 93.109302,55.836808 93.388122,57.274398 95.101752,60.684928 C 97.871302,66.197008 104.14436,69.369848 111.37246,68.914488 C 115.72312,68.640398 121.68999,67.110328 127.069,64.889458 C 130.25797,63.572798 137.83976,59.730898 141.57349,57.539628 C 146.42584,54.691848 152.6336,50.717678 152.63738,50.456588 C 152.63905,50.341338 152.42389,50.174528 152.15923,50.085908 C 150.22224,49.437258 143.11654,46.293738 138.89234,44.216688 C 132.18149,40.916978 126.04432,37.466378 120.41828,33.829718 C 116.17512,31.086958 115.85718,30.825578 116.19391,30.356698 C 117.12942,29.053988 124.03554,21.928058 128.4074,17.754458 C 133.85772,12.551318 139.74554,7.5331289 144.74445,3.8303989 C 146.59196,2.4619289 148.14481,1.2469089 148.19521,1.1303489 C 148.24562,1.0137889 155.32932,0.91841885 163.93676,0.91841885 L 179.58666,0.91841885 L 179.58666,89.418418 L 179.58666,177.91842 L 90.086662,177.91842 L 0.58665768,177.91842 L 0.58665768,89.418418 z M 81.031412,154.17452 C 85.313782,153.30848 88.610732,150.92669 90.246502,147.5173 C 91.859902,144.15458 91.873912,143.90462 91.873912,118.49256 C 91.873912,95.775508 91.863202,95.307978 91.330992,94.788888 C 90.571792,94.048408 89.781582,93.909658 86.938102,94.017568 C 84.605252,94.106098 84.412712,94.158778 83.654362,94.916138 C 83.083802,95.485978 82.737042,96.224098 82.465782,97.446248 L 82.082792,99.171817 L 81.456732,98.183818 C 80.090572,96.027818 76.820992,94.161358 73.536812,93.662668 C 67.940972,92.812948 62.411568,95.863798 59.720958,101.28552 C 58.073458,104.60532 57.506468,107.40208 57.315198,113.15251 C 56.822858,127.95386 60.889958,135.71911 69.765872,136.92437 C 73.822442,137.47522 77.255262,136.42979 79.918102,133.8326 L 81.425372,132.36249 L 81.425372,135.52658 C 81.425372,141.04858 80.567622,143.35704 78.045412,144.623 C 75.743082,145.7786 70.259952,145.67024 65.465462,144.37438 C 61.791358,143.38135 61.557388,143.5275 60.409968,147.53231 C 59.236978,151.62642 59.420558,152.25004 62.040578,153.07143 C 67.359472,154.73896 75.812532,155.22995 81.031412,154.17452 z M 72.457202,127.52354 C 70.185982,126.51757 68.982032,123.96678 68.477122,119.09097 C 68.300932,117.38959 68.246992,114.88976 68.351862,113.28661 C 68.814712,106.21122 70.381352,103.25853 74.073322,102.50322 C 75.369342,102.23809 75.766782,102.26134 76.852792,102.66587 C 80.150352,103.89416 81.704882,108.04108 81.688662,115.56615 C 81.673772,122.47283 80.250502,126.46881 77.378512,127.66737 C 76.133252,128.18704 73.801352,128.1189 72.457202,127.52354 z M 31.963498,137.15337 C 34.387568,136.71212 36.634458,135.46943 38.471598,133.55396 L 40.118748,131.83657 L 40.447388,133.46587 C 41.039188,136.39979 41.772128,136.88661 45.597568,136.88661 C 48.001568,136.88661 49.309878,136.49154 49.633978,135.66777 C 49.727928,135.429 49.804788,121.86121 49.804788,105.5171 C 49.804788,76.670738 49.789408,75.782028 49.279788,75.167448 C 48.780698,74.565578 48.565778,74.530058 44.925268,74.447768 C 41.121498,74.361808 41.089898,74.366028 40.225988,75.075028 L 39.356248,75.788828 L 39.356248,86.933428 L 39.356248,98.078038 L 37.844678,96.683718 C 31.492878,90.824568 21.277088,93.366518 17.400488,101.77076 C 15.810328,105.21814 15.180928,108.95848 15.168118,115.03681 C 15.141668,127.59431 18.541848,134.84267 25.336688,136.71372 C 27.941738,137.43105 29.771218,137.55242 31.963498,137.15337 z M 30.385848,127.61106 C 28.045618,126.48507 26.871448,123.88676 26.388328,118.76503 C 25.814478,112.68124 26.817488,106.35997 28.686038,104.28427 C 30.995168,101.71918 34.782818,101.69297 37.006428,104.22671 C 38.757818,106.22237 39.627048,109.93903 39.627048,115.43206 C 39.627048,122.14392 38.389948,126.03828 35.808228,127.45351 C 34.510618,128.16481 31.706098,128.24631 30.385848,127.61106 z M 114.22473,137.03197 C 117.04508,136.54159 119.58051,135.35285 121.41463,133.66098 L 122.90458,132.2866 L 123.09777,133.58092 C 123.33108,135.1442 123.86604,136.23826 124.57911,136.61047 C 125.2651,136.96855 131.34473,136.97002 132.03007,136.61227 C 133.04077,136.0847 133.163,135.43687 132.72429,132.93259 C 132.41486,131.16628 132.28339,127.52713 132.19377,118.24797 C 132.09788,108.32017 131.99044,105.55373 131.6435,104.07864 C 130.11487,97.579398 126.21428,94.497208 118.47926,93.676478 C 113.06293,93.101778 103.51034,94.655818 102.41231,96.290308 C 101.97379,96.943078 101.98229,97.125558 102.57136,99.702597 C 103.61565,104.2711 103.96371,104.51593 107.91036,103.45792 C 110.34635,102.80488 111.20734,102.70679 114.55824,102.70057 C 118.96123,102.69239 119.8653,102.98881 120.80068,104.74727 C 121.40278,105.87916 121.82311,109.53206 121.35126,109.53206 C 119.5687,109.53206 110.59786,110.44473 109.33398,110.75468 C 104.11752,112.03389 100.66766,115.11717 99.427002,119.60895 C 98.844312,121.71855 98.847212,126.80677 99.432312,128.9534 C 101.21911,135.5088 106.47535,138.37938 114.22473,137.03197 z M 112.08359,128.46258 C 108.96473,127.11057 108.4871,121.82267 111.23259,119.04128 C 112.65767,117.59757 114.16394,117.14487 118.38628,116.89127 L 121.56977,116.70005 L 121.56977,119.56775 C 121.56977,123.64159 121.25539,124.62706 119.36767,126.47071 C 118.18287,127.62785 117.4633,128.09027 116.34203,128.41503 C 114.57022,128.92823 113.19324,128.9436 112.08359,128.46258 z M 161.57668,137.14991 C 165.04304,136.77357 167.64164,135.97611 168.22339,135.11015 C 168.66112,134.45854 168.65217,134.24798 168.05902,131.24537 C 167.22175,127.00689 167.21002,126.99702 163.76743,127.62905 C 160.73479,128.18581 156.96847,128.08067 155.33154,127.39355 C 152.99184,126.41143 151.4297,124.33192 150.52321,120.99271 C 149.84914,118.50965 149.86212,112.17634 150.54664,109.56905 C 151.3052,106.67975 152.85943,104.54215 154.95816,103.50167 C 156.39499,102.78935 156.86817,102.69342 158.9451,102.69342 C 160.48486,102.69342 161.90074,102.8718 163.0299,103.20806 C 164.74608,103.71912 164.76327,103.71897 165.50455,103.18564 C 166.03038,102.80732 166.50988,101.94176 167.12676,100.25737 C 168.23577,97.229218 168.27133,96.340688 167.31294,95.605418 C 165.64163,94.323188 160.00082,93.262688 156.52622,93.577478 C 151.96494,93.990718 148.43738,95.469198 145.43604,98.225638 C 141.31451,102.01085 139.30899,106.81736 138.98396,113.68888 C 138.2048,130.16122 146.51002,138.78562 161.57668,137.14991 z M 110.5713,64.473288 C 109.89076,64.335848 108.53128,63.827318 107.55021,63.343198 C 104.29193,61.735358 102.87238,58.757868 102.87238,53.531468 C 102.87238,49.453508 103.75354,46.726508 106.49885,42.308388 L 107.35948,40.923348 L 109.44657,42.713598 C 116.42203,48.696938 121.91332,51.399088 129.13121,52.399988 C 132.57793,52.877938 140.0544,52.704508 146.45378,51.998158 L 147.8286,51.846408 L 145.49142,53.217828 C 142.07571,55.222118 134.0509,59.100578 130.09357,60.659728 C 126.19647,62.195168 122.0999,63.471288 119.14727,64.069608 C 116.5848,64.588888 112.17221,64.796588 110.5713,64.473288 z"
       id="path2425" />
  </g>
</svg>
