<svg xmlns="http://www.w3.org/2000/svg" viewBox="0 0 200 300"><path fill="#010101" d="M87.5 301c-6.5-.6-12.5-1-18.4-2-6-.8-12-1.9-17.8-3.4-1.7-.5-4-2.7-4-4.2-.1-1.8 1.5-4.3 3-5.5 5.3-3.6 11-6.7 16.3-10.2 1.7-1.1 2.9-3 4.9-4.7 16.4 2.6 32.3 3.2 48.7 1.2l11.6-1.8c3.5 3.2 6.8 6.6 10.5 9.6 3 2.3 6.6 3.7 9.5 6 1.6 1.3 3 3.7 3 5.6 0 1.3-2.7 2.9-4.4 3.6-11.5 4.8-23.7 4.7-36.1 5.5-9 .3-17.7.3-26.8.3z"/><path fill="#FE6601" d="M151.7 17.2a40 40 0 0 0-12.4 16.6c-2 2.4-4 4.3-5.3 6.5-7 12-8.2 27.5 1.3 39.6 6.7 8.5 12.5 18.1 18.1 27.2-9.5.2-18.8.2-27.8.2l-111.5.1 3.3-5.6c3.9-4.4 7.3-8.4 11-12.4 6.6-5 12.9-9.7 19-14.8 6.7-5.5 12.7-11.6 14.7-21L63 35a26.9 26.9 0 0 0-11.4-17.6c7.4-1.5 14.6-3 21.9-3.4 13.7-.7 27.5-.7 41.3-.8 1.9 0 3.6.8 5.5 1l31.4 3Z"/><path fill="#0E0707" d="M14.3 178.6C7 160.6 3 142.2 8.4 122.4c3.2-.4 5.8-.4 8.8-.2l58.6.1 11.6-.2c.1 0 0-.1.4 0h58.8l10.5.1c12.5.2 24.8.4 37 .4 0 .7.1 1.5-.2 2.3-7.1 0-14.1-.7-20.8-.8-4.6-.1-9.1 0-13.7 0l-1 1.7c1.9 2 4.3 4.2 5.6 6.3h-46.5l-.1 31.4c.5 2.7-2.3 7 2.1 7.2 9.5.5 19 .1 28.9.1V148h-14.9v7.1l8 .4v7.3h-16v-23.1h31.7l-2 37.1c-.1 2.5-.7 3.2-3.5 3.1-11.8-.3-23.7-.2-35.5-.2h-7v-47.3H55.4v37.8H78V163H62.8v-23.6h39.1v46.7h53.4l29.6-.2c-1.3 2.8-2.6 5.7-4.6 9-9.6.6-18.5 1-28 1.3l-119.4.4c-3.6 0-7.3-1-11-1.4a67.1 67.1 0 0 1-3.8-9.6c25.5-.4 50.6 0 75.7 0V148H70.5v7.4h15.7v25.3c-10.9 0-21.5-.2-32.2 0-4 .2-5.6-.8-5.8-5.1-.5-14.3-1.5-28.7-2.3-43.5H10.2c.9 11.8 1.6 23 2.7 34.2.1 1.3 1.9 3.4 3 3.5 5.6.4 11.2.2 17 .2l-1.1-22H22c.5 2.6.3 6.2 1.5 6.7 4.8 2.2 2 5.4 2.3 9.4-3.3-1.3-7.8-2-8-3.4-1.3-7-1.4-14.3-1.9-21.4h23l2 39.3H14.3M163.6 194c3.8 0 7.6-.3 11.4 0 4.1.4 6-1.3 6.5-5.6h-26.1l-1 5.6h9.2Z"/><path fill="#FD6602" d="M119.8 272c-16 2.2-31.9 1.6-48.1-1.4-10.7-14.5-21-29-31.1-43.6-3.7-5.3-7-10.9-10-16.7 9.9-.2 19.2.2 28.6.4l54.8.4c10.6 0 21.6-.5 32.3-.2a18 18 0 0 1-1.2 4.2l-18 41.8c-2.3 5.1-4.9 10.1-7.3 15.2Z"/><path fill="#F96606" d="M14.4 178.6c8.7-.4 17.4 0 26.5 0l-2-39.3h-23c.5 7.1.6 14.4 1.8 21.4.3 1.4 4.8 2 8.1 3.4-.3-4 2.5-7.2-2.3-9.4-1.2-.5-1-4.1-1.5-6.7h9.7l1.1 22c-5.8 0-11.4.2-17-.2-1.1 0-2.9-2.2-3-3.5-1-11.2-1.8-22.4-2.7-34.2H46c.7 14.8 1.7 29.2 2.2 43.5.2 4.3 1.9 5.3 5.8 5.2 10.7-.3 21.3-.1 32.2-.1v-25.3H70.5V148h23.3v37.6H18.1c-1.6-2-2.6-4.5-3.7-7Z"/><path fill="#0C0606" d="M14.1 107.4c37.2-.2 74 0 111-.1l27.8-.2c12.5.2 23.7 0 35.3 0 1.2 2.9 2.7 6.4 3.5 9.7-13.9.5-27.4.3-40.8.3H21.6l-11.7-.3c1.3-3 2.2-5.3 3.8-8.5m174 6.6c.5-.7 1.6-1.8 1.5-2-1-1.4-2.2-3.6-3.4-3.7-10-.2-20.1-.1-30.6-.1l1.5 5.9h31Z"/><path fill="#FD9834" d="M188.2 107a956 956 0 0 1-34.8.1c-6.4-9.2-12-18.7-18.6-27.2-9.5-12.1-8.3-27.6-1.3-39.6 1.3-2.2 3.2-4.1 5.2-6.1.3 0 .5-.1.6.4l1.6 19.5c3 6 4.8 12.7 9 16.9 7.2 7 16 12 24.3 18.3l11.5 12.4c.8 1.6 1.4 3.6 2.5 5.4Z"/><path fill="#040202" d="M151.4 17a1060 1060 0 0 1-31.6-2.8c-1.8-.2-3.6-1-5.4-1-13.7.1-27.5.1-41.2.8-7.2.3-14 2.2-21.6 3.3a89 89 0 0 1-10.9-5C39.5 11.7 38 10 38.1 9c.1-1.1 2-2.6 3.3-2.9 6.2-1.2 12.5-2.7 18.9-2.9 22.7-.6 45.4-1.2 68.1-.9 10.5.1 21 2.3 31.5 3.7 1.8.3 3.5 1.5 5.2 2.2l.5 1.7-14.2 7.2Z"/><path fill="#010101" d="M28.1 89.8a369 369 0 0 1-10.5 11.7c-2.4-9.8-4.8-19.8-6.7-29.7-1.5-8-.6-16 2-23.8a30.2 30.2 0 0 1 44.3-16.4l5.7 3.6c0 6.3 0 12.3-.7 18.6C59 45 51 38.5 42.5 39c-10.1.6-15.3 4.4-18.3 15.3-3.3 12-.4 24 4 35.4Z"/><path fill="#010000" d="m140.8 53.7-1.4-19c5.6-2.6 11-5.4 16.8-6.8 14.3-3.3 27 5.9 31.9 17.6 6.2 14.8 3 29.5-.3 44.3-1 3.8-1.3 7.7-2 12-4-3.7-7.8-7.8-11.5-12.4a73 73 0 0 0 4.6-30c-1.1-11.7-9.4-21.6-22-20.2-8.7.9-13.2 6.8-16 14.5z"/><path fill="#080404" d="m145.8 211-31.8.1c-18.3 0-36.6-.2-54.8-.4l-28.6-.4a36 36 0 0 1-5-9.1c16 0 31.7.5 47.3.7 22.5.2 45 0 67.5 0 3 0 6.2-.5 9.7-.4 9.2 0 18.3-.4 27.2-.7a68.9 68.9 0 0 1-5.1 8.7c-.2-1.5 1.1-4.7 1.5-6.5-6.5 0-12.6.2-18.7 0-4.3-.3-6.3 1.3-6 6.2l24-1.2a3 3 0 0 1-1.1 1.8l-26 1.2Z"/><path fill="#FC9533" d="M146.1 211c8.5-.8 16.8-1 25.8-1.3a654 654 0 0 1-20 31.1c-6.5 9.7-13.2 19.3-20 29.3-3.8 1-7.5 1.5-11.7 2 2-5 4.6-10 6.8-15.2 6.1-13.9 12-27.9 18-41.8.5-1 1-2.6 1.1-4.1Z"/><path fill="#F0660F" d="M150 201.5c-3 .2-6.5.4-9.6.4-22.5 0-45 .2-67.5 0l-47.4-.7c-1.2-1.8-2.5-4-3.5-6 3.6.1 7.3 1.4 11 1.4 39.6 0 79.8-.6 119.8-.4-.6 1.8-1.8 3.8-2.7 5.3Z"/><path fill="#F89336" d="M196 131.9c.2 2.1.5 4.7.3 7.3h-17.8l-1.6 24 12.7-1.1c.2-2.5.3-4.3.2-6.4-.8-.5-1.5-.7-2.1-.6-3 .4-4.7-1.2-4.2-3.8.2-1.3 2.5-2.9 4.1-3.2 2.7-.5 5.2 0 8.3-.1-1.2 7-3.2 14.3-5.4 21.7-7.5.3-14.5.5-21.3 0 .7-9.9 1.3-20 2.2-30 .4-2.8.6-5.2.8-8l23.8.2Z"/><path fill="#633" d="M196 131.9c-7.8.2-15.5 0-23.7 0-.2 2.8-.4 5.3-.9 7.6-.4-2.3-.5-4.4-.6-6.4-1.2 11.4-2 22.9-2.8 34.3 0 1.2.6 2.4 1.3 4 6.4.3 12.6.3 18.8.3 0 2 .3 3 .3 4.2 0 0 0 .2-.3.4h-24.2l1.2-21.5 1.2-21.6-.9-.1-1.3 10.5-.1-11.6-5.6-6.2 1-1.8h13.7l20.6.9c.4.1.3 0 .3.5.5 3.7-1 4.8-4.2 4.7-5.9-.2-11.8-.1-17.7-.1v1h23.8l.1.9Z"/><path fill="#F60" d="M10 116.8c4-.1 9.4-.4 14 0 2.8.4 6.7 0 8.7 0 40.6.1 77.1 1.2 117.7 1.2h4.5c2.7.3 3.8 1.8 2.2 4.2-3.2 0-6.7.2-10.7-.1-3-1.3-3.1-.7-4-.7-17.1 0-33.7-.4-50.9-.4-1.2 0-2.4.7-3.7 1 0 0-.3.2-.8-.2a8.5 8.5 0 0 0-2.9-.8H20.5c-1.2 0-2 .8-3.3 1.1-2.6 0-5.7.3-8.8.3 0-1.6.8-3.8 1.5-5.6Z"/><path fill="#F58F33" d="M164 132v12l-2 34.7c9 0 17.5-.3 26-.3-1 2.2-2 5-3 7.5-10 .4-19.6.6-29.6.3 4.4-15.5 5.7-31.3 5.6-46.9 0-4.2-1.4-6.6-6.4-6.5a577 577 0 0 1-30.4 0c-3.7 0-5.5.8-5.3 5 .3 6.8.2 13.6 0 20.4 0 1.7-.9 3.3-1.4 5v-31.1H164Z"/><path fill="#E57F33" d="M157.1 122.2c1.3-2.5.5-3.9-2.2-4.1-1.5-.2-3-.1-4.5-.1H28.7c-2 0-4-.2-6.3-.5 42.6-.3 85.5-.3 128.5-.4l40.7-.3a19 19 0 0 1 2.4 5.8c-12.2.4-24.4-.2-36.9-.4Z"/><path fill="#633" d="M195.9 148c-2.8.2-5.6-.4-8.3.1-1.6.3-3.9 1.9-4.1 3.2-.5 2.6 1.2 4.2 4.2 3.8.6-.1 1.4 0 2 .5a23 23 0 0 1-4 .5l1.9 3.7c-2.6.5-5.2 1-8.8 1.5l1.5-20.3c5.7 0 11-.3 16-.3 0 1.1.3 3.5-.2 5-3.8 1-7.6.2-11 .6v.7h11l-.2 1Z"/><path fill="#F59036" d="M150 201.5c.7-1.8 1.7-3.7 2.7-5.4 9.1-.7 18.2-1 27.6-1.3-.6 1.8-1.8 4-3 6-9.1.5-18 .7-27.2.7Z"/><path fill="#160B0B" d="M188 178.4c-8.6.3-17 .3-26 .3.6-11.2 1.2-22.7 2-34.4l1.4-11.2h.9l-1.2 21.7-1.2 21.5 24.4-.3c.4.5-.2 1.4-.4 2.4Z"/><path fill="#271313" d="M196.2 140.7c-5.1.3-10.2.3-15.9.3l-1.5 20.3 8.8-1.5-1.9-3.7c.7 0 2.3-.5 4-.5.3 1.8 0 4 0 6.5l-12.8 1.1 1.6-24h17.8l-.1 1.5Z"/><path fill="#231111" d="M188.4 176c-.3-1-.3-2.2-.3-4.3-6.2 0-12.5.3-18.9-.4-.2-.8 0-1.3 0-1.5l21.3-.1c-.2 2-1 4.1-2.1 6.3Z"/><path d="M195.9 131c-7.8.3-15.9 0-23.8 0v-1h17.7c3.3.2 4.6-1.2 4.2-4.9l1.9 5.8Z"/><path fill="#311818" d="M196 147c-3.6.3-7.3 0-10.9 0v-.7c3.4-.4 7.2 0 11-.5v1.2Z"/><path fill="#FB6605" d="M117.4 163.5c.6-2 1.5-3.6 1.5-5.3.2-6.8.3-13.6 0-20.4-.2-4.2 1.6-5 5.3-5 10.1.3 20.3.4 30.4 0 5-.1 6.3 2.3 6.4 6.5a149 149 0 0 1-5.6 46.8c-17.6.4-35.4 0-53.5 0v-46.7H62.8V163h15.1v7.2H55.5v-37.8h53.6v47.3h7c12 0 23.8 0 35.6.2 2.8.1 3.4-.6 3.5-3l2-37.2h-31.8v23.1h16v-7.3l-7.9-.4v-7h14.9v22.7c-10 0-19.4.4-28.9-.1-4.4-.2-1.6-4.5-2.1-7.2Z"/><path fill="#633" d="M163.1 194h-8.7l1-5.6h26.1c-.4 4.3-1.4 5.8-5.7 5.7H163Z"/><path fill="#F48E33" d="M17.2 122.2c.8-.5 2-1.2 3.3-1.2h63.8c.8 0 2.4.7 3.5 1.1-3.5.4-8.2.2-12 .2l-58.6-.1Z"/><path fill="#F93" d="M87.7 122.1c.8-.4 2.6-1 3.8-1h51.6c.8 0 2.3.6 3.5 1-18.8.3-39.3 0-58.9 0Z"/><path fill="#633" d="M187.6 115h-30.9l-1.5-6c10.5 0 20.6 0 30.6.2 1.2 0 2.4 2.3 3.4 3.7.1.2-.7 1.4-1.6 2.2ZM173 208l-24 1.2c-.3-5 1.7-6.5 6-6.2 6 .2 12.2 0 18.7 0l-.8 4.7.1.3z"/><path fill="#140A0A" d="M169.2 169.8v1.5c-.4-.9-1.3-2.7-1.2-3.9.7-11.5 1.5-23 2.8-34.3.1 2 .6 4 .7 6.5-.6 10-1.5 20.2-2.3 30.2Z"/></svg>